<svg width="189" height="68" viewBox="0 0 189 68" fill="none" xmlns="http://www.w3.org/2000/svg">
<path d="M52.494 31.1481C52.2648 31.3199 52.0505 31.5039 51.8512 31.7C41.0922 42.2376 30.3693 52.7353 19.6822 63.1931C18.3016 64.5445 17.2993 65.4163 16.6755 65.8086C13.154 68.0223 8.8982 68.0548 5.27301 65.9547C2.7362 64.4836 0.925639 62.0224 0.274651 59.1675C0.090205 58.3626 -0.00134138 57.3799 1.4849e-05 56.2192C0.0149333 39.1968 0.0162904 21.8063 0.00408439 4.04798C0.00205005 1.81196 1.9957 0.0243478 4.16633 0.0243478C11.7788 0.0270532 19.3398 0.0223172 26.8492 0.0101428C38.6788 -0.00811873 49.4873 5.84978 55.8914 15.7455C55.8987 15.7572 55.9085 15.7671 55.9201 15.7744C55.9318 15.7817 55.9449 15.7864 55.9586 15.7879C55.9723 15.7895 55.9862 15.7879 55.9992 15.7834C56.0122 15.7789 56.024 15.7715 56.0338 15.7618C60.5107 11.4344 65.0703 6.97592 69.7126 2.38618C70.6661 1.44334 71.3089 0.869785 71.6412 0.665526C73.9929 -0.787283 76.8857 0.26378 77.8785 2.75344C78.0453 3.17143 78.1287 3.86943 78.1287 4.84743C78.1287 22.1269 78.1287 39.4057 78.1287 56.6839C78.1287 57.693 78.6203 58.4194 79.6036 58.8631C80.5557 59.2919 81.4392 59.108 82.2543 58.3112C88.2841 52.4202 94.4312 46.4087 100.696 40.2769C100.735 40.2377 100.749 40.191 100.738 40.1369C99.3455 32.601 100.289 25.4891 103.568 18.8013C105.722 14.409 108.74 10.6451 112.623 7.50956C118.701 2.60058 125.758 0.097395 133.792 0C133.826 0 133.859 0.0134651 133.883 0.0374381C133.907 0.061411 133.92 0.0939291 133.92 0.127832V8.30089C133.92 8.38746 133.877 8.43075 133.79 8.43075C125.956 8.48757 118.789 11.9958 113.959 18.1155C108.355 25.2172 106.965 34.8958 110.481 43.2008C114.1 51.7492 121.93 57.5747 131.202 58.7353C137.69 59.5469 144.041 57.6964 149.046 53.5997C150.352 52.5304 151.513 51.2257 152.793 50.0854C152.824 50.057 152.845 50.0189 152.852 49.9774C152.859 49.9358 152.852 49.8931 152.832 49.8561C146.897 39.0432 147.329 25.6697 154.14 15.3235C159.752 6.80141 168.769 1.24382 178.922 0.190732C180.178 0.0595197 181.529 0.00067784 182.974 0.0142049C184.888 0.0304374 186.875 0.0311034 188.935 0.0162236C188.952 0.0162236 188.969 0.0230693 188.981 0.035246C188.993 0.0474228 189 0.0639346 189 0.0811551V8.38611C189 8.39848 188.995 8.41036 188.986 8.41911C188.977 8.42786 188.964 8.43278 188.951 8.43278C186.896 8.45443 184.948 8.45443 183.104 8.43278C175.067 8.33539 167.924 11.6164 162.865 17.7198C156.866 24.9636 155.478 34.9202 159.175 43.6005C159.181 43.6157 159.191 43.629 159.204 43.6394C159.217 43.6498 159.232 43.6569 159.248 43.6601C159.265 43.6633 159.281 43.6625 159.297 43.6578C159.313 43.6531 159.328 43.6445 159.339 43.633L179.209 24.1763C179.268 24.1181 179.327 24.1188 179.386 24.1783L185.127 30.0058C185.18 30.0585 185.18 30.112 185.127 30.1661C184.524 30.7964 183.888 31.4397 183.216 32.0957C176.732 38.4264 170.348 44.6773 164.063 50.8483C164.039 50.8722 164.026 50.9043 164.025 50.9378C164.025 50.9712 164.038 51.0032 164.061 51.0269C168.534 55.5733 173.827 58.159 179.941 58.784C181.03 58.8962 182.416 58.9429 184.097 58.924C185.677 58.9077 187.276 58.9071 188.894 58.922C188.965 58.922 189 58.9571 189 59.0275V67.2249C189 67.255 188.988 67.2839 188.967 67.3052C188.945 67.3265 188.916 67.3385 188.886 67.3385C186.738 67.3372 184.58 67.3365 182.413 67.3365C173.142 67.3344 164.46 63.5827 158.035 56.9213C157.981 56.8658 157.926 56.8645 157.871 56.9172C156.697 58.0576 155.513 59.2466 154.256 60.2591C147.239 65.9121 138.345 68.347 129.266 66.9834C118.386 65.348 109.108 58.8063 103.938 49.1378C103.891 49.0499 103.832 49.0404 103.761 49.1094C98.925 53.8195 94.0874 58.556 89.2484 63.3189C88.0535 64.4958 87.1245 65.3 86.4613 65.7315C80.2729 69.7653 71.7978 66.5614 69.9873 59.271C69.7757 58.4174 69.6706 57.2101 69.672 55.6491C69.6896 42.007 69.693 28.2601 69.6821 14.4084C69.682 14.3965 69.6783 14.3849 69.6716 14.375C69.6649 14.3651 69.6554 14.3575 69.6443 14.3529C69.6333 14.3484 69.6212 14.3472 69.6094 14.3495C69.5977 14.3518 69.5869 14.3574 69.5784 14.3658L59.8217 23.9186C59.7923 23.9475 59.7713 23.9837 59.7609 24.0233C59.7505 24.063 59.7511 24.1046 59.7627 24.1438C64.342 39.6174 57.3439 55.9128 43.2032 63.4407C38.3968 66.0013 33.1434 67.3027 27.4432 67.3446C27.4243 67.3446 27.4062 67.3371 27.3929 67.3238C27.3795 67.3105 27.372 67.2924 27.372 67.2736V59.0275C27.372 58.9544 27.4086 58.9179 27.4819 58.9179C36.8581 58.8124 45.1277 53.8655 49.6215 45.7432C52.037 41.3739 53.0311 36.5252 52.6039 31.1968C52.5971 31.1143 52.5605 31.0981 52.494 31.1481ZM49.7029 21.853C45.5854 14.4997 38.4001 9.58327 30.0085 8.6012C28.9954 8.48351 27.7077 8.4267 26.1453 8.43075C20.2579 8.45104 14.4024 8.4524 8.57881 8.43482C8.49472 8.43482 8.45268 8.47675 8.45268 8.56062C8.45268 24.6119 8.45268 40.659 8.45268 56.7022C8.45472 58.3498 10.1188 59.4292 11.6222 58.9463C11.9395 58.8449 12.4447 58.4546 13.1378 57.7755C25.3492 45.8054 37.5294 33.8853 49.6785 22.0153C49.6996 21.9943 49.7134 21.9671 49.7178 21.9378C49.7222 21.9086 49.717 21.8788 49.7029 21.853Z" fill="white"/>
</svg>
